<mxfile host="app.diagrams.net" agent="Mozilla/5.0 (Windows NT 10.0; Win64; x64) AppleWebKit/537.36 (KHTML, like Gecko) Chrome/128.0.0.0 Safari/537.36" version="24.7.14" pages="6">
  <diagram name="Page-1" id="-H_mtQnk-PTXWXPvYvuk">
    <mxGraphModel grid="1" page="1" gridSize="10" guides="1" tooltips="1" connect="1" arrows="1" fold="1" pageScale="1" pageWidth="1169" pageHeight="827" math="0" shadow="0">
      <root>
        <mxCell id="0" />
        <mxCell id="1" parent="0" />
        <mxCell id="zA23MoTUsTF4_91t8viU-2" value="MongoDB" style="shape=cylinder3;whiteSpace=wrap;html=1;boundedLbl=1;backgroundOutline=1;size=15;" vertex="1" parent="1">
          <mxGeometry x="560" y="280" width="60" height="80" as="geometry" />
        </mxCell>
        <mxCell id="zA23MoTUsTF4_91t8viU-3" value="pymongo-api" style="rounded=1;whiteSpace=wrap;html=1;" vertex="1" parent="1">
          <mxGeometry x="360" y="290" width="120" height="60" as="geometry" />
        </mxCell>
        <mxCell id="zA23MoTUsTF4_91t8viU-4" style="edgeStyle=orthogonalEdgeStyle;rounded=0;orthogonalLoop=1;jettySize=auto;html=1;exitX=1;exitY=0.5;exitDx=0;exitDy=0;entryX=0;entryY=0.5;entryDx=0;entryDy=0;entryPerimeter=0;" edge="1" parent="1" source="zA23MoTUsTF4_91t8viU-3" target="zA23MoTUsTF4_91t8viU-2">
          <mxGeometry relative="1" as="geometry" />
        </mxCell>
      </root>
    </mxGraphModel>
  </diagram>
  <diagram id="6cr5hC8Hi_Yr-_ruEs14" name="Variant1">
    <mxGraphModel dx="1670" dy="938" grid="1" gridSize="10" guides="1" tooltips="1" connect="1" arrows="1" fold="1" page="1" pageScale="1" pageWidth="827" pageHeight="1169" math="0" shadow="0">
      <root>
        <mxCell id="0" />
        <mxCell id="1" parent="0" />
        <mxCell id="BltSBi4_aBMoKjj-6qhV-1" value="&lt;div&gt;Mongos&lt;/div&gt;router" style="shape=cylinder3;whiteSpace=wrap;html=1;boundedLbl=1;backgroundOutline=1;size=15;" vertex="1" parent="1">
          <mxGeometry x="484" y="360" width="60" height="80" as="geometry" />
        </mxCell>
        <mxCell id="BltSBi4_aBMoKjj-6qhV-2" value="pymongo-api" style="rounded=1;whiteSpace=wrap;html=1;" vertex="1" parent="1">
          <mxGeometry x="284" y="370" width="120" height="60" as="geometry" />
        </mxCell>
        <mxCell id="BltSBi4_aBMoKjj-6qhV-3" style="edgeStyle=orthogonalEdgeStyle;rounded=0;orthogonalLoop=1;jettySize=auto;html=1;exitX=1;exitY=0.5;exitDx=0;exitDy=0;entryX=0;entryY=0.5;entryDx=0;entryDy=0;entryPerimeter=0;" edge="1" parent="1" source="BltSBi4_aBMoKjj-6qhV-2" target="BltSBi4_aBMoKjj-6qhV-1">
          <mxGeometry relative="1" as="geometry" />
        </mxCell>
        <mxCell id="BltSBi4_aBMoKjj-6qhV-4" value="shard1" style="shape=cylinder3;whiteSpace=wrap;html=1;boundedLbl=1;backgroundOutline=1;size=15;" vertex="1" parent="1">
          <mxGeometry x="670" y="290" width="60" height="80" as="geometry" />
        </mxCell>
        <mxCell id="BltSBi4_aBMoKjj-6qhV-5" value="shard2" style="shape=cylinder3;whiteSpace=wrap;html=1;boundedLbl=1;backgroundOutline=1;size=15;" vertex="1" parent="1">
          <mxGeometry x="670" y="440" width="60" height="80" as="geometry" />
        </mxCell>
        <mxCell id="BltSBi4_aBMoKjj-6qhV-6" value="configSrv" style="shape=cylinder3;whiteSpace=wrap;html=1;boundedLbl=1;backgroundOutline=1;size=15;" vertex="1" parent="1">
          <mxGeometry x="580" y="360" width="60" height="80" as="geometry" />
        </mxCell>
        <mxCell id="BltSBi4_aBMoKjj-6qhV-8" style="edgeStyle=orthogonalEdgeStyle;rounded=0;orthogonalLoop=1;jettySize=auto;html=1;" edge="1" parent="1" source="BltSBi4_aBMoKjj-6qhV-1" target="BltSBi4_aBMoKjj-6qhV-6">
          <mxGeometry relative="1" as="geometry">
            <mxPoint x="530" y="470" as="sourcePoint" />
            <mxPoint x="610" y="470" as="targetPoint" />
          </mxGeometry>
        </mxCell>
        <mxCell id="BltSBi4_aBMoKjj-6qhV-9" style="rounded=0;orthogonalLoop=1;jettySize=auto;html=1;" edge="1" parent="1" source="BltSBi4_aBMoKjj-6qhV-6" target="BltSBi4_aBMoKjj-6qhV-4">
          <mxGeometry relative="1" as="geometry">
            <mxPoint x="530" y="490" as="sourcePoint" />
            <mxPoint x="610" y="490" as="targetPoint" />
          </mxGeometry>
        </mxCell>
        <mxCell id="BltSBi4_aBMoKjj-6qhV-10" style="rounded=0;orthogonalLoop=1;jettySize=auto;html=1;" edge="1" parent="1" source="BltSBi4_aBMoKjj-6qhV-6" target="BltSBi4_aBMoKjj-6qhV-5">
          <mxGeometry relative="1" as="geometry">
            <mxPoint x="530" y="510" as="sourcePoint" />
            <mxPoint x="610" y="510" as="targetPoint" />
          </mxGeometry>
        </mxCell>
      </root>
    </mxGraphModel>
  </diagram>
  <diagram id="7wIl_J2jqRXDzt4YHylh" name="Variant2">
    <mxGraphModel grid="1" page="1" gridSize="10" guides="1" tooltips="1" connect="1" arrows="1" fold="1" pageScale="1" pageWidth="827" pageHeight="1169" math="0" shadow="0">
      <root>
        <mxCell id="0" />
        <mxCell id="1" parent="0" />
        <mxCell id="9hXrn_MqCCTIbsASRaSO-1" value="router" style="shape=cylinder3;whiteSpace=wrap;html=1;boundedLbl=1;backgroundOutline=1;size=15;fontSize=11;" vertex="1" parent="1">
          <mxGeometry x="230" y="500" width="60" height="80" as="geometry" />
        </mxCell>
        <mxCell id="9hXrn_MqCCTIbsASRaSO-2" value="pymongo-api" style="rounded=1;whiteSpace=wrap;html=1;" vertex="1" parent="1">
          <mxGeometry x="60" y="510" width="120" height="60" as="geometry" />
        </mxCell>
        <mxCell id="9hXrn_MqCCTIbsASRaSO-3" style="edgeStyle=orthogonalEdgeStyle;rounded=0;orthogonalLoop=1;jettySize=auto;html=1;exitX=1;exitY=0.5;exitDx=0;exitDy=0;entryX=0;entryY=0.5;entryDx=0;entryDy=0;entryPerimeter=0;" edge="1" parent="1" source="9hXrn_MqCCTIbsASRaSO-2" target="9hXrn_MqCCTIbsASRaSO-1">
          <mxGeometry relative="1" as="geometry" />
        </mxCell>
        <mxCell id="9hXrn_MqCCTIbsASRaSO-4" value="configsrv" style="shape=cylinder3;whiteSpace=wrap;html=1;boundedLbl=1;backgroundOutline=1;size=15;fontSize=11;" vertex="1" parent="1">
          <mxGeometry x="230" y="400" width="60" height="80" as="geometry" />
        </mxCell>
        <mxCell id="9hXrn_MqCCTIbsASRaSO-5" style="edgeStyle=orthogonalEdgeStyle;rounded=0;orthogonalLoop=1;jettySize=auto;html=1;fontSize=11;" edge="1" parent="1" source="9hXrn_MqCCTIbsASRaSO-1" target="9hXrn_MqCCTIbsASRaSO-4">
          <mxGeometry relative="1" as="geometry">
            <mxPoint x="276" y="610" as="sourcePoint" />
            <mxPoint x="356" y="610" as="targetPoint" />
          </mxGeometry>
        </mxCell>
        <mxCell id="9hXrn_MqCCTIbsASRaSO-6" style="rounded=0;orthogonalLoop=1;jettySize=auto;html=1;fontSize=11;" edge="1" parent="1" source="9hXrn_MqCCTIbsASRaSO-1">
          <mxGeometry relative="1" as="geometry">
            <mxPoint x="276" y="630" as="sourcePoint" />
            <mxPoint x="416" y="493.3333333333335" as="targetPoint" />
          </mxGeometry>
        </mxCell>
        <mxCell id="9hXrn_MqCCTIbsASRaSO-7" style="rounded=0;orthogonalLoop=1;jettySize=auto;html=1;fontSize=11;" edge="1" parent="1" source="9hXrn_MqCCTIbsASRaSO-1">
          <mxGeometry relative="1" as="geometry">
            <mxPoint x="276" y="650" as="sourcePoint" />
            <mxPoint x="416" y="593.3333333333333" as="targetPoint" />
          </mxGeometry>
        </mxCell>
        <mxCell id="9hXrn_MqCCTIbsASRaSO-8" value="shard01-1" style="shape=cylinder3;whiteSpace=wrap;html=1;boundedLbl=1;backgroundOutline=1;size=15;fontSize=11;" vertex="1" parent="1">
          <mxGeometry x="416" y="430" width="60" height="80" as="geometry" />
        </mxCell>
        <mxCell id="9hXrn_MqCCTIbsASRaSO-9" value="shard01-2" style="shape=cylinder3;whiteSpace=wrap;html=1;boundedLbl=1;backgroundOutline=1;size=15;fontSize=11;" vertex="1" parent="1">
          <mxGeometry x="476" y="430" width="60" height="80" as="geometry" />
        </mxCell>
        <mxCell id="9hXrn_MqCCTIbsASRaSO-10" value="shard01-3" style="shape=cylinder3;whiteSpace=wrap;html=1;boundedLbl=1;backgroundOutline=1;size=15;fontSize=11;" vertex="1" parent="1">
          <mxGeometry x="536" y="430" width="60" height="80" as="geometry" />
        </mxCell>
        <mxCell id="9hXrn_MqCCTIbsASRaSO-11" value="shard02-1" style="shape=cylinder3;whiteSpace=wrap;html=1;boundedLbl=1;backgroundOutline=1;size=15;fontSize=11;" vertex="1" parent="1">
          <mxGeometry x="416" y="570" width="60" height="80" as="geometry" />
        </mxCell>
        <mxCell id="9hXrn_MqCCTIbsASRaSO-12" value="shard02-2" style="shape=cylinder3;whiteSpace=wrap;html=1;boundedLbl=1;backgroundOutline=1;size=15;fontSize=11;" vertex="1" parent="1">
          <mxGeometry x="476" y="570" width="60" height="80" as="geometry" />
        </mxCell>
        <mxCell id="9hXrn_MqCCTIbsASRaSO-13" value="shard02-3" style="shape=cylinder3;whiteSpace=wrap;html=1;boundedLbl=1;backgroundOutline=1;size=15;fontSize=11;" vertex="1" parent="1">
          <mxGeometry x="536" y="570" width="60" height="80" as="geometry" />
        </mxCell>
        <mxCell id="9hXrn_MqCCTIbsASRaSO-16" style="rounded=0;orthogonalLoop=1;jettySize=auto;html=1;fontSize=11;" edge="1" parent="1" source="9hXrn_MqCCTIbsASRaSO-8" target="9hXrn_MqCCTIbsASRaSO-4">
          <mxGeometry relative="1" as="geometry">
            <mxPoint x="370" y="480" as="sourcePoint" />
            <mxPoint x="370" y="460" as="targetPoint" />
          </mxGeometry>
        </mxCell>
        <mxCell id="9hXrn_MqCCTIbsASRaSO-17" value="" style="endArrow=none;dashed=1;html=1;dashPattern=1 3;strokeWidth=2;rounded=0;" edge="1" parent="1" source="9hXrn_MqCCTIbsASRaSO-11" target="9hXrn_MqCCTIbsASRaSO-8">
          <mxGeometry width="50" height="50" relative="1" as="geometry">
            <mxPoint x="400" y="570" as="sourcePoint" />
            <mxPoint x="450" y="520" as="targetPoint" />
          </mxGeometry>
        </mxCell>
        <mxCell id="9hXrn_MqCCTIbsASRaSO-18" value="" style="endArrow=none;dashed=1;html=1;dashPattern=1 3;strokeWidth=2;rounded=0;" edge="1" parent="1">
          <mxGeometry width="50" height="50" relative="1" as="geometry">
            <mxPoint x="505.79999999999995" y="570" as="sourcePoint" />
            <mxPoint x="505.79999999999995" y="510" as="targetPoint" />
          </mxGeometry>
        </mxCell>
        <mxCell id="9hXrn_MqCCTIbsASRaSO-19" value="" style="endArrow=none;dashed=1;html=1;dashPattern=1 3;strokeWidth=2;rounded=0;" edge="1" parent="1">
          <mxGeometry width="50" height="50" relative="1" as="geometry">
            <mxPoint x="565.8" y="570" as="sourcePoint" />
            <mxPoint x="565.8" y="510" as="targetPoint" />
          </mxGeometry>
        </mxCell>
      </root>
    </mxGraphModel>
  </diagram>
  <diagram id="70LufKmaKrwZ9QdhXC-v" name="variant3">
    <mxGraphModel grid="1" page="1" gridSize="10" guides="1" tooltips="1" connect="1" arrows="1" fold="1" pageScale="1" pageWidth="827" pageHeight="1169" math="0" shadow="0">
      <root>
        <mxCell id="0" />
        <mxCell id="1" parent="0" />
        <mxCell id="8mU9SHNXkZcZ_35IyDtf-1" value="router" style="shape=cylinder3;whiteSpace=wrap;html=1;boundedLbl=1;backgroundOutline=1;size=15;fontSize=11;" vertex="1" parent="1">
          <mxGeometry x="340" y="500" width="60" height="80" as="geometry" />
        </mxCell>
        <mxCell id="8mU9SHNXkZcZ_35IyDtf-2" value="pymongo-api" style="rounded=1;whiteSpace=wrap;html=1;" vertex="1" parent="1">
          <mxGeometry x="170" y="510" width="120" height="60" as="geometry" />
        </mxCell>
        <mxCell id="8mU9SHNXkZcZ_35IyDtf-3" style="edgeStyle=orthogonalEdgeStyle;rounded=0;orthogonalLoop=1;jettySize=auto;html=1;exitX=1;exitY=0.5;exitDx=0;exitDy=0;entryX=0;entryY=0.5;entryDx=0;entryDy=0;entryPerimeter=0;" edge="1" parent="1" source="8mU9SHNXkZcZ_35IyDtf-2" target="8mU9SHNXkZcZ_35IyDtf-1">
          <mxGeometry relative="1" as="geometry" />
        </mxCell>
        <mxCell id="8mU9SHNXkZcZ_35IyDtf-4" value="configsrv" style="shape=cylinder3;whiteSpace=wrap;html=1;boundedLbl=1;backgroundOutline=1;size=15;fontSize=11;" vertex="1" parent="1">
          <mxGeometry x="340" y="400" width="60" height="80" as="geometry" />
        </mxCell>
        <mxCell id="8mU9SHNXkZcZ_35IyDtf-5" style="edgeStyle=orthogonalEdgeStyle;rounded=0;orthogonalLoop=1;jettySize=auto;html=1;fontSize=11;" edge="1" parent="1" source="8mU9SHNXkZcZ_35IyDtf-1" target="8mU9SHNXkZcZ_35IyDtf-4">
          <mxGeometry relative="1" as="geometry">
            <mxPoint x="386" y="610" as="sourcePoint" />
            <mxPoint x="466" y="610" as="targetPoint" />
          </mxGeometry>
        </mxCell>
        <mxCell id="8mU9SHNXkZcZ_35IyDtf-6" style="rounded=0;orthogonalLoop=1;jettySize=auto;html=1;fontSize=11;" edge="1" parent="1" source="8mU9SHNXkZcZ_35IyDtf-1">
          <mxGeometry relative="1" as="geometry">
            <mxPoint x="386" y="630" as="sourcePoint" />
            <mxPoint x="526" y="493.3333333333335" as="targetPoint" />
          </mxGeometry>
        </mxCell>
        <mxCell id="8mU9SHNXkZcZ_35IyDtf-7" style="rounded=0;orthogonalLoop=1;jettySize=auto;html=1;fontSize=11;" edge="1" parent="1" source="8mU9SHNXkZcZ_35IyDtf-1">
          <mxGeometry relative="1" as="geometry">
            <mxPoint x="386" y="650" as="sourcePoint" />
            <mxPoint x="526" y="593.3333333333333" as="targetPoint" />
          </mxGeometry>
        </mxCell>
        <mxCell id="8mU9SHNXkZcZ_35IyDtf-8" value="shard01-1" style="shape=cylinder3;whiteSpace=wrap;html=1;boundedLbl=1;backgroundOutline=1;size=15;fontSize=11;" vertex="1" parent="1">
          <mxGeometry x="526" y="430" width="60" height="80" as="geometry" />
        </mxCell>
        <mxCell id="8mU9SHNXkZcZ_35IyDtf-9" value="shard01-2" style="shape=cylinder3;whiteSpace=wrap;html=1;boundedLbl=1;backgroundOutline=1;size=15;fontSize=11;" vertex="1" parent="1">
          <mxGeometry x="586" y="430" width="60" height="80" as="geometry" />
        </mxCell>
        <mxCell id="8mU9SHNXkZcZ_35IyDtf-10" value="shard01-3" style="shape=cylinder3;whiteSpace=wrap;html=1;boundedLbl=1;backgroundOutline=1;size=15;fontSize=11;" vertex="1" parent="1">
          <mxGeometry x="646" y="430" width="60" height="80" as="geometry" />
        </mxCell>
        <mxCell id="8mU9SHNXkZcZ_35IyDtf-11" value="shard02-1" style="shape=cylinder3;whiteSpace=wrap;html=1;boundedLbl=1;backgroundOutline=1;size=15;fontSize=11;" vertex="1" parent="1">
          <mxGeometry x="526" y="570" width="60" height="80" as="geometry" />
        </mxCell>
        <mxCell id="8mU9SHNXkZcZ_35IyDtf-12" value="shard02-2" style="shape=cylinder3;whiteSpace=wrap;html=1;boundedLbl=1;backgroundOutline=1;size=15;fontSize=11;" vertex="1" parent="1">
          <mxGeometry x="586" y="570" width="60" height="80" as="geometry" />
        </mxCell>
        <mxCell id="8mU9SHNXkZcZ_35IyDtf-13" value="shard02-3" style="shape=cylinder3;whiteSpace=wrap;html=1;boundedLbl=1;backgroundOutline=1;size=15;fontSize=11;" vertex="1" parent="1">
          <mxGeometry x="646" y="570" width="60" height="80" as="geometry" />
        </mxCell>
        <mxCell id="8mU9SHNXkZcZ_35IyDtf-14" value="redis" style="shape=cylinder3;whiteSpace=wrap;html=1;boundedLbl=1;backgroundOutline=1;size=15;fontSize=11;" vertex="1" parent="1">
          <mxGeometry x="200" y="620" width="60" height="80" as="geometry" />
        </mxCell>
        <mxCell id="8mU9SHNXkZcZ_35IyDtf-16" style="edgeStyle=orthogonalEdgeStyle;rounded=0;orthogonalLoop=1;jettySize=auto;html=1;" edge="1" parent="1" source="8mU9SHNXkZcZ_35IyDtf-2" target="8mU9SHNXkZcZ_35IyDtf-14">
          <mxGeometry relative="1" as="geometry">
            <mxPoint x="280" y="619.6" as="sourcePoint" />
            <mxPoint x="330" y="619.6" as="targetPoint" />
          </mxGeometry>
        </mxCell>
        <mxCell id="kzFoIZtYJIy-m0ncFiTO-4" style="rounded=0;orthogonalLoop=1;jettySize=auto;html=1;fontSize=11;" edge="1" parent="1" source="8mU9SHNXkZcZ_35IyDtf-8" target="8mU9SHNXkZcZ_35IyDtf-4">
          <mxGeometry relative="1" as="geometry">
            <mxPoint x="480" y="480" as="sourcePoint" />
            <mxPoint x="480" y="460" as="targetPoint" />
          </mxGeometry>
        </mxCell>
        <mxCell id="kzFoIZtYJIy-m0ncFiTO-5" value="" style="endArrow=none;dashed=1;html=1;dashPattern=1 3;strokeWidth=2;rounded=0;" edge="1" parent="1" source="8mU9SHNXkZcZ_35IyDtf-11" target="8mU9SHNXkZcZ_35IyDtf-8">
          <mxGeometry width="50" height="50" relative="1" as="geometry">
            <mxPoint x="510" y="570" as="sourcePoint" />
            <mxPoint x="560" y="520" as="targetPoint" />
          </mxGeometry>
        </mxCell>
        <mxCell id="kzFoIZtYJIy-m0ncFiTO-6" value="" style="endArrow=none;dashed=1;html=1;dashPattern=1 3;strokeWidth=2;rounded=0;" edge="1" parent="1">
          <mxGeometry width="50" height="50" relative="1" as="geometry">
            <mxPoint x="615.8" y="570" as="sourcePoint" />
            <mxPoint x="615.8" y="510" as="targetPoint" />
          </mxGeometry>
        </mxCell>
        <mxCell id="kzFoIZtYJIy-m0ncFiTO-7" value="" style="endArrow=none;dashed=1;html=1;dashPattern=1 3;strokeWidth=2;rounded=0;" edge="1" parent="1">
          <mxGeometry width="50" height="50" relative="1" as="geometry">
            <mxPoint x="675.8" y="570" as="sourcePoint" />
            <mxPoint x="675.8" y="510" as="targetPoint" />
          </mxGeometry>
        </mxCell>
      </root>
    </mxGraphModel>
  </diagram>
  <diagram id="z-GZ4YgWa_368P6NeJr5" name="variant4">
    <mxGraphModel grid="1" page="1" gridSize="10" guides="1" tooltips="1" connect="1" arrows="1" fold="1" pageScale="1" pageWidth="827" pageHeight="1169" math="0" shadow="0">
      <root>
        <mxCell id="0" />
        <mxCell id="1" parent="0" />
        <mxCell id="_enUz3ogyx8JvFOW3SCP-1" value="router" style="shape=cylinder3;whiteSpace=wrap;html=1;boundedLbl=1;backgroundOutline=1;size=15;fontSize=11;" vertex="1" parent="1">
          <mxGeometry x="400" y="500" width="60" height="80" as="geometry" />
        </mxCell>
        <mxCell id="_enUz3ogyx8JvFOW3SCP-2" value="pymongo-api&lt;span style=&quot;background-color: initial;&quot;&gt;2&lt;/span&gt;" style="rounded=1;whiteSpace=wrap;html=1;" vertex="1" parent="1">
          <mxGeometry x="460" y="670" width="120" height="60" as="geometry" />
        </mxCell>
        <mxCell id="_enUz3ogyx8JvFOW3SCP-3" style="rounded=0;orthogonalLoop=1;jettySize=auto;html=1;" edge="1" parent="1" source="_enUz3ogyx8JvFOW3SCP-2" target="_enUz3ogyx8JvFOW3SCP-1">
          <mxGeometry relative="1" as="geometry" />
        </mxCell>
        <mxCell id="_enUz3ogyx8JvFOW3SCP-4" value="configsrv" style="shape=cylinder3;whiteSpace=wrap;html=1;boundedLbl=1;backgroundOutline=1;size=15;fontSize=11;" vertex="1" parent="1">
          <mxGeometry x="400" y="400" width="60" height="80" as="geometry" />
        </mxCell>
        <mxCell id="_enUz3ogyx8JvFOW3SCP-5" style="edgeStyle=orthogonalEdgeStyle;rounded=0;orthogonalLoop=1;jettySize=auto;html=1;fontSize=11;" edge="1" parent="1" source="_enUz3ogyx8JvFOW3SCP-1" target="_enUz3ogyx8JvFOW3SCP-4">
          <mxGeometry relative="1" as="geometry">
            <mxPoint x="446" y="610" as="sourcePoint" />
            <mxPoint x="526" y="610" as="targetPoint" />
          </mxGeometry>
        </mxCell>
        <mxCell id="_enUz3ogyx8JvFOW3SCP-6" style="rounded=0;orthogonalLoop=1;jettySize=auto;html=1;fontSize=11;" edge="1" parent="1" source="_enUz3ogyx8JvFOW3SCP-1" target="_enUz3ogyx8JvFOW3SCP-8">
          <mxGeometry relative="1" as="geometry">
            <mxPoint x="446" y="630" as="sourcePoint" />
            <mxPoint x="586" y="493.3333333333335" as="targetPoint" />
          </mxGeometry>
        </mxCell>
        <mxCell id="_enUz3ogyx8JvFOW3SCP-7" style="rounded=0;orthogonalLoop=1;jettySize=auto;html=1;fontSize=11;" edge="1" parent="1" source="_enUz3ogyx8JvFOW3SCP-1" target="_enUz3ogyx8JvFOW3SCP-11">
          <mxGeometry relative="1" as="geometry">
            <mxPoint x="446" y="650" as="sourcePoint" />
            <mxPoint x="586" y="593.3333333333333" as="targetPoint" />
          </mxGeometry>
        </mxCell>
        <mxCell id="_enUz3ogyx8JvFOW3SCP-8" value="shard01-1" style="shape=cylinder3;whiteSpace=wrap;html=1;boundedLbl=1;backgroundOutline=1;size=15;fontSize=11;" vertex="1" parent="1">
          <mxGeometry x="586" y="400" width="60" height="80" as="geometry" />
        </mxCell>
        <mxCell id="_enUz3ogyx8JvFOW3SCP-9" value="shard01-2" style="shape=cylinder3;whiteSpace=wrap;html=1;boundedLbl=1;backgroundOutline=1;size=15;fontSize=11;" vertex="1" parent="1">
          <mxGeometry x="646" y="400" width="60" height="80" as="geometry" />
        </mxCell>
        <mxCell id="_enUz3ogyx8JvFOW3SCP-10" value="shard01-3" style="shape=cylinder3;whiteSpace=wrap;html=1;boundedLbl=1;backgroundOutline=1;size=15;fontSize=11;" vertex="1" parent="1">
          <mxGeometry x="706" y="400" width="60" height="80" as="geometry" />
        </mxCell>
        <mxCell id="_enUz3ogyx8JvFOW3SCP-11" value="shard02-1" style="shape=cylinder3;whiteSpace=wrap;html=1;boundedLbl=1;backgroundOutline=1;size=15;fontSize=11;" vertex="1" parent="1">
          <mxGeometry x="586" y="540" width="60" height="80" as="geometry" />
        </mxCell>
        <mxCell id="_enUz3ogyx8JvFOW3SCP-12" value="shard02-2" style="shape=cylinder3;whiteSpace=wrap;html=1;boundedLbl=1;backgroundOutline=1;size=15;fontSize=11;" vertex="1" parent="1">
          <mxGeometry x="646" y="540" width="60" height="80" as="geometry" />
        </mxCell>
        <mxCell id="_enUz3ogyx8JvFOW3SCP-13" value="shard02-3" style="shape=cylinder3;whiteSpace=wrap;html=1;boundedLbl=1;backgroundOutline=1;size=15;fontSize=11;" vertex="1" parent="1">
          <mxGeometry x="706" y="540" width="60" height="80" as="geometry" />
        </mxCell>
        <mxCell id="_enUz3ogyx8JvFOW3SCP-14" value="&amp;nbsp;Redis" style="shape=cylinder3;whiteSpace=wrap;html=1;boundedLbl=1;backgroundOutline=1;size=15;fontSize=11;" vertex="1" parent="1">
          <mxGeometry x="630" y="860" width="60" height="80" as="geometry" />
        </mxCell>
        <mxCell id="_enUz3ogyx8JvFOW3SCP-15" style="edgeStyle=orthogonalEdgeStyle;rounded=0;orthogonalLoop=1;jettySize=auto;html=1;" edge="1" parent="1" source="_enUz3ogyx8JvFOW3SCP-21" target="_enUz3ogyx8JvFOW3SCP-14">
          <mxGeometry relative="1" as="geometry">
            <mxPoint x="340" y="619.6" as="sourcePoint" />
            <mxPoint x="390" y="619.6" as="targetPoint" />
          </mxGeometry>
        </mxCell>
        <mxCell id="_enUz3ogyx8JvFOW3SCP-16" style="rounded=0;orthogonalLoop=1;jettySize=auto;html=1;fontSize=11;" edge="1" parent="1" source="_enUz3ogyx8JvFOW3SCP-8" target="_enUz3ogyx8JvFOW3SCP-4">
          <mxGeometry relative="1" as="geometry">
            <mxPoint x="540" y="480" as="sourcePoint" />
            <mxPoint x="540" y="460" as="targetPoint" />
          </mxGeometry>
        </mxCell>
        <mxCell id="_enUz3ogyx8JvFOW3SCP-17" value="" style="endArrow=none;dashed=1;html=1;dashPattern=1 3;strokeWidth=2;rounded=0;" edge="1" parent="1" source="_enUz3ogyx8JvFOW3SCP-11" target="_enUz3ogyx8JvFOW3SCP-8">
          <mxGeometry width="50" height="50" relative="1" as="geometry">
            <mxPoint x="570" y="540" as="sourcePoint" />
            <mxPoint x="620" y="490" as="targetPoint" />
          </mxGeometry>
        </mxCell>
        <mxCell id="_enUz3ogyx8JvFOW3SCP-18" value="" style="endArrow=none;dashed=1;html=1;dashPattern=1 3;strokeWidth=2;rounded=0;" edge="1" parent="1">
          <mxGeometry width="50" height="50" relative="1" as="geometry">
            <mxPoint x="675.8" y="540" as="sourcePoint" />
            <mxPoint x="675.8" y="480" as="targetPoint" />
          </mxGeometry>
        </mxCell>
        <mxCell id="_enUz3ogyx8JvFOW3SCP-19" value="" style="endArrow=none;dashed=1;html=1;dashPattern=1 3;strokeWidth=2;rounded=0;" edge="1" parent="1">
          <mxGeometry width="50" height="50" relative="1" as="geometry">
            <mxPoint x="735.8" y="540" as="sourcePoint" />
            <mxPoint x="735.8" y="480" as="targetPoint" />
          </mxGeometry>
        </mxCell>
        <mxCell id="_enUz3ogyx8JvFOW3SCP-20" value="pymongo-api&lt;span style=&quot;background-color: initial;&quot;&gt;1&lt;/span&gt;" style="rounded=1;whiteSpace=wrap;html=1;" vertex="1" parent="1">
          <mxGeometry x="280" y="670" width="120" height="60" as="geometry" />
        </mxCell>
        <mxCell id="_enUz3ogyx8JvFOW3SCP-21" value="API Gateway" style="rounded=1;whiteSpace=wrap;html=1;" vertex="1" parent="1">
          <mxGeometry x="370" y="870" width="120" height="60" as="geometry" />
        </mxCell>
        <mxCell id="_enUz3ogyx8JvFOW3SCP-22" value="" style="endArrow=classic;html=1;rounded=0;" edge="1" parent="1" source="_enUz3ogyx8JvFOW3SCP-21" target="_enUz3ogyx8JvFOW3SCP-20">
          <mxGeometry width="50" height="50" relative="1" as="geometry">
            <mxPoint x="90" y="670" as="sourcePoint" />
            <mxPoint x="140" y="620" as="targetPoint" />
          </mxGeometry>
        </mxCell>
        <mxCell id="_enUz3ogyx8JvFOW3SCP-23" value="" style="endArrow=classic;html=1;rounded=0;" edge="1" parent="1" source="_enUz3ogyx8JvFOW3SCP-21" target="_enUz3ogyx8JvFOW3SCP-2">
          <mxGeometry width="50" height="50" relative="1" as="geometry">
            <mxPoint x="120" y="444" as="sourcePoint" />
            <mxPoint x="200" y="420" as="targetPoint" />
          </mxGeometry>
        </mxCell>
        <mxCell id="_enUz3ogyx8JvFOW3SCP-24" style="rounded=0;orthogonalLoop=1;jettySize=auto;html=1;" edge="1" parent="1" source="_enUz3ogyx8JvFOW3SCP-20" target="_enUz3ogyx8JvFOW3SCP-1">
          <mxGeometry relative="1" as="geometry">
            <mxPoint x="300" y="370" as="sourcePoint" />
            <mxPoint x="350" y="340" as="targetPoint" />
          </mxGeometry>
        </mxCell>
        <mxCell id="_enUz3ogyx8JvFOW3SCP-25" value="Consul" style="rounded=1;whiteSpace=wrap;html=1;" vertex="1" parent="1">
          <mxGeometry x="140" y="880" width="120" height="60" as="geometry" />
        </mxCell>
        <mxCell id="_enUz3ogyx8JvFOW3SCP-27" value="Site" style="rounded=1;whiteSpace=wrap;html=1;" vertex="1" parent="1">
          <mxGeometry x="370" y="1040" width="120" height="60" as="geometry" />
        </mxCell>
        <mxCell id="_enUz3ogyx8JvFOW3SCP-28" value="" style="endArrow=classic;html=1;rounded=0;" edge="1" parent="1" source="_enUz3ogyx8JvFOW3SCP-27" target="_enUz3ogyx8JvFOW3SCP-21">
          <mxGeometry width="50" height="50" relative="1" as="geometry">
            <mxPoint x="-100" y="650.5" as="sourcePoint" />
            <mxPoint x="-20" y="664.5" as="targetPoint" />
          </mxGeometry>
        </mxCell>
        <mxCell id="_enUz3ogyx8JvFOW3SCP-29" value="" style="endArrow=classic;html=1;rounded=0;" edge="1" parent="1" source="_enUz3ogyx8JvFOW3SCP-21" target="_enUz3ogyx8JvFOW3SCP-25">
          <mxGeometry width="50" height="50" relative="1" as="geometry">
            <mxPoint x="-70" y="449.5" as="sourcePoint" />
            <mxPoint x="-10" y="449.5" as="targetPoint" />
          </mxGeometry>
        </mxCell>
        <mxCell id="_enUz3ogyx8JvFOW3SCP-32" value="запрос списка сервисов" style="edgeLabel;html=1;align=center;verticalAlign=middle;resizable=0;points=[];fontSize=8;" connectable="0" vertex="1" parent="_enUz3ogyx8JvFOW3SCP-29">
          <mxGeometry x="-0.0942" y="1" relative="1" as="geometry">
            <mxPoint as="offset" />
          </mxGeometry>
        </mxCell>
        <mxCell id="_enUz3ogyx8JvFOW3SCP-30" value="" style="endArrow=classic;html=1;rounded=0;" edge="1" parent="1" source="_enUz3ogyx8JvFOW3SCP-20" target="_enUz3ogyx8JvFOW3SCP-25">
          <mxGeometry width="50" height="50" relative="1" as="geometry">
            <mxPoint x="250" y="455" as="sourcePoint" />
            <mxPoint x="250" y="410" as="targetPoint" />
          </mxGeometry>
        </mxCell>
        <mxCell id="_enUz3ogyx8JvFOW3SCP-31" value="Регистрация" style="edgeLabel;html=1;align=center;verticalAlign=middle;resizable=0;points=[];fontSize=8;" connectable="0" vertex="1" parent="_enUz3ogyx8JvFOW3SCP-30">
          <mxGeometry x="0.1539" y="-1" relative="1" as="geometry">
            <mxPoint x="8" y="1" as="offset" />
          </mxGeometry>
        </mxCell>
      </root>
    </mxGraphModel>
  </diagram>
  <diagram id="imVrdkB05TDNWJjzSimE" name="Variant5">
    <mxGraphModel grid="1" page="1" gridSize="10" guides="1" tooltips="1" connect="1" arrows="1" fold="1" pageScale="1" pageWidth="827" pageHeight="1169" math="0" shadow="0">
      <root>
        <mxCell id="0" />
        <mxCell id="1" parent="0" />
        <mxCell id="TPrOr9ccz00bam7eTA__-1" value="router" style="shape=cylinder3;whiteSpace=wrap;html=1;boundedLbl=1;backgroundOutline=1;size=15;fontSize=11;" vertex="1" parent="1">
          <mxGeometry x="400" y="460" width="60" height="80" as="geometry" />
        </mxCell>
        <mxCell id="TPrOr9ccz00bam7eTA__-2" value="pymongo-api&lt;span style=&quot;background-color: initial;&quot;&gt;2&lt;/span&gt;" style="rounded=1;whiteSpace=wrap;html=1;" vertex="1" parent="1">
          <mxGeometry x="460" y="630" width="120" height="60" as="geometry" />
        </mxCell>
        <mxCell id="TPrOr9ccz00bam7eTA__-3" style="rounded=0;orthogonalLoop=1;jettySize=auto;html=1;" edge="1" parent="1" source="TPrOr9ccz00bam7eTA__-2" target="TPrOr9ccz00bam7eTA__-1">
          <mxGeometry relative="1" as="geometry" />
        </mxCell>
        <mxCell id="TPrOr9ccz00bam7eTA__-4" value="configsrv" style="shape=cylinder3;whiteSpace=wrap;html=1;boundedLbl=1;backgroundOutline=1;size=15;fontSize=11;" vertex="1" parent="1">
          <mxGeometry x="400" y="320" width="60" height="80" as="geometry" />
        </mxCell>
        <mxCell id="TPrOr9ccz00bam7eTA__-5" style="edgeStyle=orthogonalEdgeStyle;rounded=0;orthogonalLoop=1;jettySize=auto;html=1;fontSize=11;" edge="1" parent="1" source="TPrOr9ccz00bam7eTA__-1" target="TPrOr9ccz00bam7eTA__-4">
          <mxGeometry relative="1" as="geometry">
            <mxPoint x="446" y="570" as="sourcePoint" />
            <mxPoint x="526" y="570" as="targetPoint" />
          </mxGeometry>
        </mxCell>
        <mxCell id="TPrOr9ccz00bam7eTA__-6" style="rounded=0;orthogonalLoop=1;jettySize=auto;html=1;fontSize=11;" edge="1" parent="1" source="TPrOr9ccz00bam7eTA__-1" target="TPrOr9ccz00bam7eTA__-8">
          <mxGeometry relative="1" as="geometry">
            <mxPoint x="446" y="590" as="sourcePoint" />
            <mxPoint x="586" y="453.3333333333335" as="targetPoint" />
          </mxGeometry>
        </mxCell>
        <mxCell id="TPrOr9ccz00bam7eTA__-7" style="rounded=0;orthogonalLoop=1;jettySize=auto;html=1;fontSize=11;" edge="1" parent="1" source="TPrOr9ccz00bam7eTA__-1" target="TPrOr9ccz00bam7eTA__-11">
          <mxGeometry relative="1" as="geometry">
            <mxPoint x="446" y="610" as="sourcePoint" />
            <mxPoint x="586" y="553.3333333333333" as="targetPoint" />
          </mxGeometry>
        </mxCell>
        <mxCell id="TPrOr9ccz00bam7eTA__-8" value="shard01-1" style="shape=cylinder3;whiteSpace=wrap;html=1;boundedLbl=1;backgroundOutline=1;size=15;fontSize=11;" vertex="1" parent="1">
          <mxGeometry x="540" y="320" width="60" height="80" as="geometry" />
        </mxCell>
        <mxCell id="TPrOr9ccz00bam7eTA__-9" value="shard01-2" style="shape=cylinder3;whiteSpace=wrap;html=1;boundedLbl=1;backgroundOutline=1;size=15;fontSize=11;" vertex="1" parent="1">
          <mxGeometry x="600" y="320" width="60" height="80" as="geometry" />
        </mxCell>
        <mxCell id="TPrOr9ccz00bam7eTA__-10" value="shard01-3" style="shape=cylinder3;whiteSpace=wrap;html=1;boundedLbl=1;backgroundOutline=1;size=15;fontSize=11;" vertex="1" parent="1">
          <mxGeometry x="660" y="320" width="60" height="80" as="geometry" />
        </mxCell>
        <mxCell id="TPrOr9ccz00bam7eTA__-11" value="shard02-1" style="shape=cylinder3;whiteSpace=wrap;html=1;boundedLbl=1;backgroundOutline=1;size=15;fontSize=11;" vertex="1" parent="1">
          <mxGeometry x="540" y="460" width="60" height="80" as="geometry" />
        </mxCell>
        <mxCell id="TPrOr9ccz00bam7eTA__-12" value="shard02-2" style="shape=cylinder3;whiteSpace=wrap;html=1;boundedLbl=1;backgroundOutline=1;size=15;fontSize=11;" vertex="1" parent="1">
          <mxGeometry x="600" y="460" width="60" height="80" as="geometry" />
        </mxCell>
        <mxCell id="TPrOr9ccz00bam7eTA__-13" value="shard02-3" style="shape=cylinder3;whiteSpace=wrap;html=1;boundedLbl=1;backgroundOutline=1;size=15;fontSize=11;" vertex="1" parent="1">
          <mxGeometry x="660" y="460" width="60" height="80" as="geometry" />
        </mxCell>
        <mxCell id="TPrOr9ccz00bam7eTA__-14" value="&amp;nbsp;Redis" style="shape=cylinder3;whiteSpace=wrap;html=1;boundedLbl=1;backgroundOutline=1;size=15;fontSize=11;" vertex="1" parent="1">
          <mxGeometry x="630" y="820" width="60" height="80" as="geometry" />
        </mxCell>
        <mxCell id="TPrOr9ccz00bam7eTA__-15" style="edgeStyle=orthogonalEdgeStyle;rounded=0;orthogonalLoop=1;jettySize=auto;html=1;" edge="1" parent="1" source="TPrOr9ccz00bam7eTA__-21" target="TPrOr9ccz00bam7eTA__-14">
          <mxGeometry relative="1" as="geometry">
            <mxPoint x="340" y="579.6" as="sourcePoint" />
            <mxPoint x="390" y="579.6" as="targetPoint" />
          </mxGeometry>
        </mxCell>
        <mxCell id="TPrOr9ccz00bam7eTA__-16" style="rounded=0;orthogonalLoop=1;jettySize=auto;html=1;fontSize=11;" edge="1" parent="1" source="TPrOr9ccz00bam7eTA__-8" target="TPrOr9ccz00bam7eTA__-4">
          <mxGeometry relative="1" as="geometry">
            <mxPoint x="540" y="440" as="sourcePoint" />
            <mxPoint x="540" y="420" as="targetPoint" />
          </mxGeometry>
        </mxCell>
        <mxCell id="TPrOr9ccz00bam7eTA__-17" value="" style="endArrow=none;dashed=1;html=1;dashPattern=1 3;strokeWidth=2;rounded=0;" edge="1" parent="1" source="TPrOr9ccz00bam7eTA__-11" target="TPrOr9ccz00bam7eTA__-8">
          <mxGeometry width="50" height="50" relative="1" as="geometry">
            <mxPoint x="524" y="460" as="sourcePoint" />
            <mxPoint x="574" y="410" as="targetPoint" />
          </mxGeometry>
        </mxCell>
        <mxCell id="TPrOr9ccz00bam7eTA__-18" value="" style="endArrow=none;dashed=1;html=1;dashPattern=1 3;strokeWidth=2;rounded=0;" edge="1" parent="1">
          <mxGeometry width="50" height="50" relative="1" as="geometry">
            <mxPoint x="629.8" y="460" as="sourcePoint" />
            <mxPoint x="629.8" y="400" as="targetPoint" />
          </mxGeometry>
        </mxCell>
        <mxCell id="TPrOr9ccz00bam7eTA__-19" value="" style="endArrow=none;dashed=1;html=1;dashPattern=1 3;strokeWidth=2;rounded=0;" edge="1" parent="1">
          <mxGeometry width="50" height="50" relative="1" as="geometry">
            <mxPoint x="689.8" y="460" as="sourcePoint" />
            <mxPoint x="689.8" y="400" as="targetPoint" />
          </mxGeometry>
        </mxCell>
        <mxCell id="TPrOr9ccz00bam7eTA__-20" value="pymongo-api&lt;span style=&quot;background-color: initial;&quot;&gt;1&lt;/span&gt;" style="rounded=1;whiteSpace=wrap;html=1;" vertex="1" parent="1">
          <mxGeometry x="280" y="630" width="120" height="60" as="geometry" />
        </mxCell>
        <mxCell id="TPrOr9ccz00bam7eTA__-21" value="API Gateway" style="rounded=1;whiteSpace=wrap;html=1;" vertex="1" parent="1">
          <mxGeometry x="370" y="830" width="120" height="60" as="geometry" />
        </mxCell>
        <mxCell id="TPrOr9ccz00bam7eTA__-22" value="" style="endArrow=classic;html=1;rounded=0;" edge="1" parent="1" source="TPrOr9ccz00bam7eTA__-21" target="TPrOr9ccz00bam7eTA__-20">
          <mxGeometry width="50" height="50" relative="1" as="geometry">
            <mxPoint x="90" y="630" as="sourcePoint" />
            <mxPoint x="140" y="580" as="targetPoint" />
          </mxGeometry>
        </mxCell>
        <mxCell id="TPrOr9ccz00bam7eTA__-23" value="" style="endArrow=classic;html=1;rounded=0;" edge="1" parent="1" source="TPrOr9ccz00bam7eTA__-21" target="TPrOr9ccz00bam7eTA__-2">
          <mxGeometry width="50" height="50" relative="1" as="geometry">
            <mxPoint x="120" y="404" as="sourcePoint" />
            <mxPoint x="200" y="380" as="targetPoint" />
          </mxGeometry>
        </mxCell>
        <mxCell id="TPrOr9ccz00bam7eTA__-24" style="rounded=0;orthogonalLoop=1;jettySize=auto;html=1;" edge="1" parent="1" source="TPrOr9ccz00bam7eTA__-20" target="TPrOr9ccz00bam7eTA__-1">
          <mxGeometry relative="1" as="geometry">
            <mxPoint x="300" y="330" as="sourcePoint" />
            <mxPoint x="350" y="300" as="targetPoint" />
          </mxGeometry>
        </mxCell>
        <mxCell id="TPrOr9ccz00bam7eTA__-25" value="Consul" style="rounded=1;whiteSpace=wrap;html=1;" vertex="1" parent="1">
          <mxGeometry x="140" y="840" width="120" height="60" as="geometry" />
        </mxCell>
        <mxCell id="TPrOr9ccz00bam7eTA__-26" value="Site" style="rounded=1;whiteSpace=wrap;html=1;" vertex="1" parent="1">
          <mxGeometry x="370" y="1000" width="120" height="60" as="geometry" />
        </mxCell>
        <mxCell id="TPrOr9ccz00bam7eTA__-27" value="" style="endArrow=classic;html=1;rounded=0;" edge="1" parent="1" source="TPrOr9ccz00bam7eTA__-26" target="TPrOr9ccz00bam7eTA__-21">
          <mxGeometry width="50" height="50" relative="1" as="geometry">
            <mxPoint x="-100" y="610.5" as="sourcePoint" />
            <mxPoint x="-20" y="624.5" as="targetPoint" />
          </mxGeometry>
        </mxCell>
        <mxCell id="TPrOr9ccz00bam7eTA__-28" value="" style="endArrow=classic;html=1;rounded=0;" edge="1" parent="1" source="TPrOr9ccz00bam7eTA__-21" target="TPrOr9ccz00bam7eTA__-25">
          <mxGeometry width="50" height="50" relative="1" as="geometry">
            <mxPoint x="-70" y="409.5" as="sourcePoint" />
            <mxPoint x="-10" y="409.5" as="targetPoint" />
          </mxGeometry>
        </mxCell>
        <mxCell id="TPrOr9ccz00bam7eTA__-29" value="запрос списка сервисов" style="edgeLabel;html=1;align=center;verticalAlign=middle;resizable=0;points=[];fontSize=8;" connectable="0" vertex="1" parent="TPrOr9ccz00bam7eTA__-28">
          <mxGeometry x="-0.0942" y="1" relative="1" as="geometry">
            <mxPoint as="offset" />
          </mxGeometry>
        </mxCell>
        <mxCell id="TPrOr9ccz00bam7eTA__-30" value="" style="endArrow=classic;html=1;rounded=0;" edge="1" parent="1" source="TPrOr9ccz00bam7eTA__-20" target="TPrOr9ccz00bam7eTA__-25">
          <mxGeometry width="50" height="50" relative="1" as="geometry">
            <mxPoint x="250" y="415" as="sourcePoint" />
            <mxPoint x="250" y="370" as="targetPoint" />
          </mxGeometry>
        </mxCell>
        <mxCell id="TPrOr9ccz00bam7eTA__-31" value="Регистрация" style="edgeLabel;html=1;align=center;verticalAlign=middle;resizable=0;points=[];fontSize=8;" connectable="0" vertex="1" parent="TPrOr9ccz00bam7eTA__-30">
          <mxGeometry x="0.1539" y="-1" relative="1" as="geometry">
            <mxPoint x="8" y="1" as="offset" />
          </mxGeometry>
        </mxCell>
        <mxCell id="TPrOr9ccz00bam7eTA__-32" value="shard03-1" style="shape=cylinder3;whiteSpace=wrap;html=1;boundedLbl=1;backgroundOutline=1;size=15;fontSize=11;" vertex="1" parent="1">
          <mxGeometry x="30" y="190" width="60" height="80" as="geometry" />
        </mxCell>
        <mxCell id="TPrOr9ccz00bam7eTA__-33" value="shard03-2" style="shape=cylinder3;whiteSpace=wrap;html=1;boundedLbl=1;backgroundOutline=1;size=15;fontSize=11;" vertex="1" parent="1">
          <mxGeometry x="90" y="190" width="60" height="80" as="geometry" />
        </mxCell>
        <mxCell id="TPrOr9ccz00bam7eTA__-34" value="shard03-3" style="shape=cylinder3;whiteSpace=wrap;html=1;boundedLbl=1;backgroundOutline=1;size=15;fontSize=11;" vertex="1" parent="1">
          <mxGeometry x="60" y="220" width="60" height="80" as="geometry" />
        </mxCell>
        <mxCell id="TPrOr9ccz00bam7eTA__-35" value="shard04-1" style="shape=cylinder3;whiteSpace=wrap;html=1;boundedLbl=1;backgroundOutline=1;size=15;fontSize=11;" vertex="1" parent="1">
          <mxGeometry x="30" y="362.5" width="60" height="80" as="geometry" />
        </mxCell>
        <mxCell id="TPrOr9ccz00bam7eTA__-36" value="shard04-2" style="shape=cylinder3;whiteSpace=wrap;html=1;boundedLbl=1;backgroundOutline=1;size=15;fontSize=11;" vertex="1" parent="1">
          <mxGeometry x="90" y="362.5" width="60" height="80" as="geometry" />
        </mxCell>
        <mxCell id="TPrOr9ccz00bam7eTA__-37" value="shard04-3" style="shape=cylinder3;whiteSpace=wrap;html=1;boundedLbl=1;backgroundOutline=1;size=15;fontSize=11;" vertex="1" parent="1">
          <mxGeometry x="60" y="392.5" width="60" height="80" as="geometry" />
        </mxCell>
        <mxCell id="TPrOr9ccz00bam7eTA__-38" value="shard05-1" style="shape=cylinder3;whiteSpace=wrap;html=1;boundedLbl=1;backgroundOutline=1;size=15;fontSize=11;" vertex="1" parent="1">
          <mxGeometry x="30" y="550" width="60" height="80" as="geometry" />
        </mxCell>
        <mxCell id="TPrOr9ccz00bam7eTA__-39" value="shard05-2" style="shape=cylinder3;whiteSpace=wrap;html=1;boundedLbl=1;backgroundOutline=1;size=15;fontSize=11;" vertex="1" parent="1">
          <mxGeometry x="90" y="550" width="60" height="80" as="geometry" />
        </mxCell>
        <mxCell id="TPrOr9ccz00bam7eTA__-40" value="shard05-3" style="shape=cylinder3;whiteSpace=wrap;html=1;boundedLbl=1;backgroundOutline=1;size=15;fontSize=11;" vertex="1" parent="1">
          <mxGeometry x="60" y="580" width="60" height="80" as="geometry" />
        </mxCell>
        <mxCell id="TPrOr9ccz00bam7eTA__-41" value="ЦОД1" style="text;html=1;align=center;verticalAlign=middle;resizable=0;points=[];autosize=1;strokeColor=none;fillColor=none;" vertex="1" parent="1">
          <mxGeometry x="60" y="160" width="60" height="30" as="geometry" />
        </mxCell>
        <mxCell id="TPrOr9ccz00bam7eTA__-42" value="ЦОД2" style="text;html=1;align=center;verticalAlign=middle;resizable=0;points=[];autosize=1;strokeColor=none;fillColor=none;" vertex="1" parent="1">
          <mxGeometry x="60" y="327.5" width="60" height="30" as="geometry" />
        </mxCell>
        <mxCell id="TPrOr9ccz00bam7eTA__-43" value="ЦОД3" style="text;html=1;align=center;verticalAlign=middle;resizable=0;points=[];autosize=1;strokeColor=none;fillColor=none;" vertex="1" parent="1">
          <mxGeometry x="60" y="520" width="60" height="30" as="geometry" />
        </mxCell>
        <mxCell id="TPrOr9ccz00bam7eTA__-44" style="rounded=0;orthogonalLoop=1;jettySize=auto;html=1;fontSize=11;" edge="1" parent="1" source="TPrOr9ccz00bam7eTA__-1" target="TPrOr9ccz00bam7eTA__-34">
          <mxGeometry relative="1" as="geometry">
            <mxPoint x="120" y="527.87" as="sourcePoint" />
            <mxPoint x="246" y="459.87" as="targetPoint" />
          </mxGeometry>
        </mxCell>
        <mxCell id="TPrOr9ccz00bam7eTA__-45" style="rounded=0;orthogonalLoop=1;jettySize=auto;html=1;fontSize=11;" edge="1" parent="1" source="TPrOr9ccz00bam7eTA__-1" target="TPrOr9ccz00bam7eTA__-36">
          <mxGeometry relative="1" as="geometry">
            <mxPoint x="114" y="527.87" as="sourcePoint" />
            <mxPoint x="240" y="459.87" as="targetPoint" />
          </mxGeometry>
        </mxCell>
        <mxCell id="TPrOr9ccz00bam7eTA__-46" style="rounded=0;orthogonalLoop=1;jettySize=auto;html=1;fontSize=11;" edge="1" parent="1" source="TPrOr9ccz00bam7eTA__-1" target="TPrOr9ccz00bam7eTA__-39">
          <mxGeometry relative="1" as="geometry">
            <mxPoint x="137" y="558" as="sourcePoint" />
            <mxPoint x="263" y="490" as="targetPoint" />
          </mxGeometry>
        </mxCell>
        <mxCell id="TPrOr9ccz00bam7eTA__-47" style="rounded=0;orthogonalLoop=1;jettySize=auto;html=1;fontSize=11;" edge="1" parent="1" source="TPrOr9ccz00bam7eTA__-33" target="TPrOr9ccz00bam7eTA__-4">
          <mxGeometry relative="1" as="geometry">
            <mxPoint x="460" y="407.82" as="sourcePoint" />
            <mxPoint x="180" y="209.82" as="targetPoint" />
          </mxGeometry>
        </mxCell>
      </root>
    </mxGraphModel>
  </diagram>
</mxfile>
